# xmcd CD database file
#
# Track frame offsets:
#	187
#	24645
#	47887
#	69362
#	87655
#	108282
#	127340
#	149347
#	169585
#	189585
#	204587
#
# Disc length: 3040 seconds
#
# Revision: 4
# Processed by: cddbd v1.5.2PL0 Copyright (c) Steve Scherf et al.
# Submitted via: CDex 1.70beta3
#
DISCID=a30bde0b
DTITLE=柳ジョージ - NIGHT OWL CLUB
DYEAR=1987
DGENRE=J-Rock
TTITLE0=5 TO 0 (FIVE TO MIDNIGHT)
TTITLE1=FOR GIVENESS
TTITLE2=NIGHTMARE
TTITLE3=MISSING TOWN
TTITLE4=MOVE ON
TTITLE5=SEARCHIN' FOR MY LOVE
TTITLE6=LONELY CENTURY
TTITLE7=FRANKIE
TTITLE8=GOLDEN TIME
TTITLE9=BIG FISH
TTITLE10=GASOLINE ALLEY
EXTD=YEAR: 1987
EXTT0=
EXTT1=
EXTT2=
EXTT3=
EXTT4=
EXTT5=
EXTT6=
EXTT7=
EXTT8=
EXTT9=
EXTT10=
PLAYORDER=
